# xmcd CD database file generated by OrangeCD 6.4
#
# Track frame offsets:
#	150
#	10653
#	19653
#	35942
#	46075
#	59407
#	76443
#	90972
#	102005
#	113038
#	124096
#	137725
#
# Disc length: 2063 seconds
#
# Revision: 0
# Processed by: cddbd v1.5.2PL0 Copyright (c) Steve Scherf et al.
# Submitted via: OrangeCD 6.4
#
DISCID=8e080d0c
DTITLE=Mornin' Old Sport - Mornin' Old Sport
DYEAR=2012
DGENRE=
TTITLE0=When The Bomb
TTITLE1=Kaitie
TTITLE2=Sweet Pea
TTITLE3=Over The Moon
TTITLE4=My Lips
TTITLE5=Mornin' Old Sport and Scott Nanos - I Want To Break Your Heart
TTITLE6=Mornin' Old Sport and Scott Nanos - Clementine
TTITLE7=Mornin' Old Sport, Scott Nanos and Arielle Guitar - Baby I Love You
TTITLE8=Broken Lamps
TTITLE9=Put One Back
TTITLE10=Boatman
TTITLE11=Heartbreak
EXTD=
EXTT0=
EXTT1=
EXTT2=
EXTT3=
EXTT4=
EXTT5=
EXTT6=
EXTT7=
EXTT8=
EXTT9=
EXTT10=
EXTT11=
PLAYORDER=
